HIERARCHY
ROOT Hips
{
  OFFSET 5.72205e-005 65.662 3.42586
  CHANNELS 6 Xposition Yposition Zposition Zrotation Xrotation Yrotation
  JOINT Chest
  {
    OFFSET 0 8.7983 -4.7612
    CHANNELS 3 Zrotation Xrotation Yrotation
    JOINT Chest2
    {
      OFFSET 0 8.0291 0.4195
      CHANNELS 3 Zrotation Xrotation Yrotation
      JOINT Chest3
      {
        OFFSET 0 9.9351 -2.2114
        CHANNELS 3 Zrotation Xrotation Yrotation
        JOINT Neck
        {
          OFFSET 0 22.3885 -0.4656
          CHANNELS 3 Zrotation Xrotation Yrotation
          JOINT Head
          {
            OFFSET -0.0001 12.643 3.4389
            CHANNELS 3 Zrotation Xrotation Yrotation
            End Site
            {
              OFFSET 0.0001 17.6655 0.5274
            }
          }
        }
        JOINT LeftCollar
        {
          OFFSET 2.2603 21.606 7.4023
          CHANNELS 3 Zrotation Xrotation Yrotation
          JOINT LeftShoulder
          {
            OFFSET 13.5163 -1.1332 -5.0146
            CHANNELS 3 Zrotation Xrotation Yrotation
            JOINT LeftElbow
            {
              OFFSET -0.0995 -28.05 -0.2431
              CHANNELS 3 Zrotation Xrotation Yrotation
              JOINT LeftWrist
              {
                OFFSET 0.0679 -23.3996 -0.1402
                CHANNELS 3 Zrotation Xrotation Yrotation
                JOINT LeftFinger1
                {
                  OFFSET 0.7932 -9.069 2.5189
                  CHANNELS 3 Zrotation Xrotation Yrotation
                  JOINT LeftFinger11
                  {
                    OFFSET -0.8272 -3.3923 0.5977
                    CHANNELS 3 Zrotation Xrotation Yrotation
                    JOINT LeftFinger12
                    {
                      OFFSET -0.5649 -2.3158 0.4082
                      CHANNELS 3 Zrotation Xrotation Yrotation
                      End Site
                      {
                        OFFSET -0.4919 -1.6479 0.2673
                      }
                    }
                  }
                }
                JOINT LeftFinger2
                {
                  OFFSET 0.9159 -9.2044 0.2193
                  CHANNELS 3 Zrotation Xrotation Yrotation
                  JOINT LeftFinger21
                  {
                    OFFSET 0.0117 -4.1944 -0.0248
                    CHANNELS 3 Zrotation Xrotation Yrotation
                    JOINT LeftFinger22
                    {
                      OFFSET 0.0071 -2.3249 -0.0142
                      CHANNELS 3 Zrotation Xrotation Yrotation
                      End Site
                      {
                        OFFSET -0.1475 -2.0882 0.0028
                      }
                    }
                  }
                }
                JOINT LeftFinger3
                {
                  OFFSET 0.6113 -8.7231 -2.0637
                  CHANNELS 3 Zrotation Xrotation Yrotation
                  JOINT LeftFinger31
                  {
                    OFFSET -0.1927 -3.8059 -0.2383
                    CHANNELS 3 Zrotation Xrotation Yrotation
                    JOINT LeftFinger32
                    {
                      OFFSET -0.1091 -2.1688 -0.1362
                      CHANNELS 3 Zrotation Xrotation Yrotation
                      End Site
                      {
                        OFFSET -0.2358 -1.9176 -0.0906
                      }
                    }
                  }
                }
                JOINT LeftFinger4
                {
                  OFFSET -0.6151 -8.0947 -3.5641
                  CHANNELS 3 Zrotation Xrotation Yrotation
                  JOINT LeftFinger41
                  {
                    OFFSET -0.4882 -2.341 -0.6462
                    CHANNELS 3 Zrotation Xrotation Yrotation
                    JOINT LeftFinger42
                    {
                      OFFSET -0.3575 -1.7167 -0.4742
                      CHANNELS 3 Zrotation Xrotation Yrotation
                      End Site
                      {
                        OFFSET -0.4187 -1.5237 -0.3496
                      }
                    }
                  }
                }
                JOINT LeftFinger0
                {
                  OFFSET -1.42 -1.8761 1.4223
                  CHANNELS 3 Zrotation Xrotation Yrotation
                  JOINT LeftFinger01
                  {
                    OFFSET -1.1471 -3.4929 2.6334
                    CHANNELS 3 Zrotation Xrotation Yrotation
                    JOINT LeftFinger02
                    {
                      OFFSET -0.823 -2.3 1.6571
                      CHANNELS 3 Zrotation Xrotation Yrotation
                      End Site
                      {
                        OFFSET -0.5822 -1.6914 1.1582
                      }
                    }
                  }
                }
              }
            }
          }
        }
        JOINT RightCollar
        {
          OFFSET -2.2603 21.606 7.4023
          CHANNELS 3 Zrotation Xrotation Yrotation
          JOINT RightShoulder
          {
            OFFSET -13.5187 -1.1334 -5.0155
            CHANNELS 3 Zrotation Xrotation Yrotation
            JOINT RightElbow
            {
              OFFSET 0.0994 -28.0499 -0.2431
              CHANNELS 3 Zrotation Xrotation Yrotation
              JOINT RightWrist
              {
                OFFSET -0.0679 -23.3996 -0.1402
                CHANNELS 3 Zrotation Xrotation Yrotation
                JOINT RightFinger1
                {
                  OFFSET -0.7932 -9.0691 2.5189
                  CHANNELS 3 Zrotation Xrotation Yrotation
                  JOINT RightFinger11
                  {
                    OFFSET 0.8272 -3.3923 0.5977
                    CHANNELS 3 Zrotation Xrotation Yrotation
                    JOINT RightFinger12
                    {
                      OFFSET 0.565 -2.3158 0.4082
                      CHANNELS 3 Zrotation Xrotation Yrotation
                      End Site
                      {
                        OFFSET 0.4919 -1.6479 0.2673
                      }
                    }
                  }
                }
                JOINT RightFinger2
                {
                  OFFSET -0.916 -9.2044 0.2193
                  CHANNELS 3 Zrotation Xrotation Yrotation
                  JOINT RightFinger21
                  {
                    OFFSET -0.0117 -4.1944 -0.0248
                    CHANNELS 3 Zrotation Xrotation Yrotation
                    JOINT RightFinger22
                    {
                      OFFSET -0.0071 -2.3249 -0.0142
                      CHANNELS 3 Zrotation Xrotation Yrotation
                      End Site
                      {
                        OFFSET 0.1475 -2.0882 0.0028
                      }
                    }
                  }
                }
                JOINT RightFinger3
                {
                  OFFSET -0.6113 -8.7231 -2.0637
                  CHANNELS 3 Zrotation Xrotation Yrotation
                  JOINT RightFinger31
                  {
                    OFFSET 0.1927 -3.8059 -0.2383
                    CHANNELS 3 Zrotation Xrotation Yrotation
                    JOINT RightFinger32
                    {
                      OFFSET 0.1091 -2.1688 -0.1362
                      CHANNELS 3 Zrotation Xrotation Yrotation
                      End Site
                      {
                        OFFSET 0.2358 -1.9176 -0.0906
                      }
                    }
                  }
                }
                JOINT RightFinger4
                {
                  OFFSET 0.6151 -8.0947 -3.564
                  CHANNELS 3 Zrotation Xrotation Yrotation
                  JOINT RightFinger41
                  {
                    OFFSET 0.4882 -2.341 -0.6462
                    CHANNELS 3 Zrotation Xrotation Yrotation
                    JOINT RightFinger42
                    {
                      OFFSET 0.3574 -1.7166 -0.4742
                      CHANNELS 3 Zrotation Xrotation Yrotation
                      End Site
                      {
                        OFFSET 0.4187 -1.5237 -0.3496
                      }
                    }
                  }
                }
                JOINT RightFinger0
                {
                  OFFSET 1.4199 -1.8761 1.4221
                  CHANNELS 3 Zrotation Xrotation Yrotation
                  JOINT RightFinger01
                  {
                    OFFSET 1.1472 -3.4929 2.6336
                    CHANNELS 3 Zrotation Xrotation Yrotation
                    JOINT RightFinger02
                    {
                      OFFSET 0.8229 -2.3 1.6571
                      CHANNELS 3 Zrotation Xrotation Yrotation
                      End Site
                      {
                        OFFSET 0.5822 -1.6914 1.1582
                      }
                    }
                  }
                }
              }
            }
          }
        }
      }
    }
  }
  JOINT RightHip
  {
    OFFSET -9.412 3.9771 -0.7758
    CHANNELS 3 Zrotation Xrotation Yrotation
    JOINT RightKnee
    {
      OFFSET -0.7531 -40.938 0
      CHANNELS 3 Zrotation Xrotation Yrotation
      JOINT RightAnkle
      {
        OFFSET 0 -40.1986 0
        CHANNELS 3 Zrotation Xrotation Yrotation
        JOINT RightToe
        {
          OFFSET 0 -4.4182 9.239
          CHANNELS 3 Zrotation Xrotation Yrotation
          End Site
          {
            OFFSET 0 0 6.1981
          }
        }
      }
    }
  }
  JOINT LeftHip
  {
    OFFSET 9.4119 3.9773 -0.7758
    CHANNELS 3 Zrotation Xrotation Yrotation
    JOINT LeftKnee
    {
      OFFSET 0.7532 -40.9383 0
      CHANNELS 3 Zrotation Xrotation Yrotation
      JOINT LeftAnkle
      {
        OFFSET 0 -40.1986 0
        CHANNELS 3 Zrotation Xrotation Yrotation
        JOINT LeftToe
        {
          OFFSET 0 -4.4182 9.239
          CHANNELS 3 Zrotation Xrotation Yrotation
          End Site
          {
            OFFSET 0 0 6.1981
          }
        }
      }
    }
  }
}
MOTION
Frames:	5
Frame Time:	0.0333333
2.68287 1.6665 9.98533 0.645983 -48.0242 -1.50211 0.547102 6.40451 -0.731047 1.18823 12.8011 -1.5386 1.18824 12.8012 -1.53861 0.426064 26.8819 13.5623 15.0235 0.473837 13.7788 11.0025 6.99051 -12.5014 -10.3178 31.0604 -9.81988 2.09158 -4.55452 52.8667 61.5003 -26.1585 6.21687 1.14798e-005 -7.2962e-007 1.60151e-006 -1.03509e-007 -8.33984e-007 8.46415e-007 -1.15575e-005 -1.17559e-007 -9.66702e-007 1.14798e-005 -7.2962e-007 1.60151e-006 -0.0128059 0.00232211 8.61653e-005 1.34252e-005 -7.60001e-007 9.06508e-007 1.14798e-005 -7.2962e-007 1.60151e-006 -0.0160631 0.00300094 0.000859392 1.21295e-006 -1.70966e-006 2.41606e-007 1.14798e-005 -7.2962e-007 1.60151e-006 -0.0125844 0.00312082 0.00282899 -1.27672e-005 7.65174e-007 -1.20933e-006 1.14798e-005 -7.2962e-007 1.60151e-006 -1.03509e-007 -8.33984e-007 8.46415e-007 -1.15575e-005 -1.17559e-007 -9.66702e-007 -11.8783 7.15592 7.14154 6.25989 32.5467 17.1246 -0.695048 -4.25324 -52.8668 -61.996 -25.2844 -7.81236 1.31441e-006 -2.33007e-006 -3.5262e-007 1.96533e-007 8.7872e-007 -8.28757e-007 -1.96533e-007 -8.7872e-007 8.28757e-007 1.31441e-006 -2.33007e-006 -3.5262e-007 0.012952 0.00231817 -8.77314e-005 1.03642e-005 5.43367e-007 3.08321e-006 1.31441e-006 -2.33007e-006 -3.5262e-007 0.0163242 0.00303375 -0.000872527 -1.55917e-005 3.20623e-007 -1.82505e-006 1.31441e-006 -2.33007e-006 -3.5262e-007 0.0145765 0.00367969 -0.00325983 9.82857e-008 -3.46131e-009 -4.14371e-007 1.31441e-006 -2.33007e-006 -3.5262e-007 1.96533e-007 8.7872e-007 -8.28757e-007 -1.96533e-007 -8.7872e-007 8.28757e-007 -101.754 -39.3546 -91.3452 -157.857 70.6785 156.387 24.1556 18.1303 -0.365384 3.93584e-007 -1.35612e-006 4.80406e-006 38.4163 -33.0948 32.1269 10.1063 18.6618 26.7856 -25.402 27.3644 -1.58068 -1.54394e-006 2.39511e-006 5.16187e-006 
2.68265 1.66622 9.98529 0.645984 -48.0242 -1.50211 0.547102 6.40451 -0.731047 1.18823 12.8011 -1.5386 1.18824 12.8012 -1.53861 0.422107 26.9581 13.4828 14.8426 0.54125 13.7106 11.0025 6.99051 -12.5014 -10.3178 31.0604 -9.81987 2.09161 -4.55453 52.8668 61.5004 -26.1585 6.21686 -9.93923e-017 0 -0 2.98177e-015 7.95139e-016 7.95139e-016 2.78299e-015 7.95139e-016 -0 -9.93923e-017 0 -0 -0.0128147 0.0023236 8.57833e-005 1.83876e-015 -1.59028e-015 3.97569e-016 -9.93923e-017 0 -0 -0.0160218 0.0029901 0.000856316 -3.03147e-015 2.38542e-015 -0 -9.93923e-017 0 -0 -0.0125984 0.00312247 0.00282522 -1.36167e-014 1.59028e-015 -1.59028e-015 -9.93923e-017 0 -0 2.98177e-015 7.95139e-016 7.95139e-016 2.78299e-015 7.95139e-016 -0 -11.8783 7.15592 7.14154 6.25985 32.5467 17.1246 -0.695032 -4.25324 -52.8668 -61.996 -25.2844 -7.8124 2.38542e-015 0 -7.95139e-016 1.96533e-007 -1.67424e-006 -8.28757e-007 1.96533e-007 8.7872e-007 -8.28757e-007 2.38542e-015 0 -7.95139e-016 0.0129568 0.00231437 -8.3586e-005 9.82766e-008 -1.58063e-006 -4.14374e-007 2.38542e-015 0 -7.95139e-016 0.0163456 0.00303491 -0.000874186 1.9656e-007 8.32791e-007 -8.28746e-007 2.38542e-015 0 -7.95139e-016 0.0145837 0.00367787 -0.00326275 9.82857e-008 -4.76856e-008 -4.14371e-007 2.38542e-015 0 -7.95139e-016 1.96533e-007 -1.67424e-006 -8.28757e-007 1.96533e-007 8.7872e-007 -8.28757e-007 -101.79 -39.1982 -91.4763 -157.855 70.6799 156.382 24.1561 18.1388 -0.36878 -1.19326e-005 5.60059e-006 9.31841e-006 38.4163 -33.0945 32.127 10.1061 18.6609 26.7858 -25.4018 27.365 -1.58057 1.52516e-006 -7.60351e-007 5.96023e-007 
2.68243 1.66593 9.98524 0.645984 -48.0242 -1.50211 0.547102 6.40451 -0.731047 1.18823 12.8011 -1.5386 1.18824 12.8012 -1.53861 0.418264 27.0342 13.4033 14.6618 0.6089 13.6426 11.0025 6.99051 -12.5014 -10.3178 31.0604 -9.81987 2.09161 -4.55453 52.8668 61.5004 -26.1585 6.21686 -4.96962e-016 0 3.97569e-016 -1.88845e-015 1.59028e-015 7.95139e-016 2.73329e-015 2.38542e-015 7.95139e-016 -4.96962e-016 0 3.97569e-016 -0.0128147 0.0023236 8.57833e-005 5.96354e-015 0 3.97569e-016 -4.96962e-016 0 3.97569e-016 -0.0160218 0.0029901 0.000856316 -1.39149e-015 2.38542e-015 -7.95139e-016 -4.96962e-016 0 3.97569e-016 -0.0125984 0.00312247 0.00282522 -1.2921e-014 0 -1.59028e-015 -4.96962e-016 0 3.97569e-016 -1.88845e-015 1.59028e-015 7.95139e-016 2.73329e-015 2.38542e-015 7.95139e-016 -11.8783 7.15592 7.14154 6.25985 32.5467 17.1246 -0.695032 -4.25324 -52.8668 -61.996 -25.2844 -7.8124 2.948e-007 -5.19967e-009 -1.24314e-006 -1.96533e-007 1.73322e-009 8.28757e-007 4.91333e-007 -1.63005e-006 -2.07189e-006 2.948e-007 -5.19967e-009 -1.24314e-006 0.0129581 0.00231281 -8.23488e-005 1.96553e-007 4.42083e-008 -8.28749e-007 2.948e-007 -5.19967e-009 -1.24314e-006 0.0163563 0.00303371 -0.000869318 2.5842e-015 -3.46781e-009 -7.95139e-016 2.948e-007 -5.19967e-009 -1.24314e-006 0.0145847 0.00367957 -0.00325986 9.93923e-016 1.59028e-015 -0 2.948e-007 -5.19967e-009 -1.24314e-006 -1.96533e-007 1.73322e-009 8.28757e-007 4.91333e-007 -1.63005e-006 -2.07189e-006 -101.826 -39.0418 -91.6069 -157.853 70.6815 156.378 24.1566 18.1472 -0.372128 2.28644e-007 -5.81847e-007 -2.69361e-006 38.4164 -33.0945 32.127 10.1061 18.6604 26.7859 -25.4016 27.3655 -1.5805 5.98217e-006 2.54406e-006 6.86969e-006 
2.68221 1.66565 9.9852 0.645984 -48.0242 -1.50211 0.547102 6.40451 -0.731047 1.18823 12.8011 -1.5386 1.18824 12.8012 -1.53861 0.414535 27.1104 13.3238 14.481 0.676793 13.5747 11.0025 6.99051 -12.5014 -10.3178 31.0604 -9.81987 2.09161 -4.55453 52.8668 61.5004 -26.1585 6.21686 -9.93923e-017 0 -0 2.98177e-015 7.95139e-016 7.95139e-016 2.78299e-015 7.95139e-016 -0 -9.93923e-017 0 -0 -0.0128147 0.0023236 8.57833e-005 1.83876e-015 -1.59028e-015 3.97569e-016 -9.93923e-017 0 -0 -0.0160366 0.0029926 0.000857284 2.28602e-015 7.95139e-016 3.97569e-016 -9.93923e-017 0 -0 -0.0125984 0.00312247 0.00282522 -1.36167e-014 1.59028e-015 -1.59028e-015 -9.93923e-017 0 -0 2.98177e-015 7.95139e-016 7.95139e-016 2.78299e-015 7.95139e-016 -0 -11.8783 7.15592 7.14154 6.25985 32.5467 17.1246 -0.695032 -4.25324 -52.8668 -61.996 -25.2844 -7.8124 2.38542e-015 0 -7.95139e-016 1.96533e-007 -1.67424e-006 -8.28757e-007 1.96533e-007 8.7872e-007 -8.28757e-007 2.38542e-015 0 -7.95139e-016 0.0129568 0.00231437 -8.3586e-005 9.82766e-008 -1.58063e-006 -4.14374e-007 2.38542e-015 0 -7.95139e-016 0.0163456 0.00303491 -0.000874186 1.9656e-007 8.32791e-007 -8.28746e-007 2.38542e-015 0 -7.95139e-016 0.0145837 0.00367787 -0.00326275 9.82857e-008 -4.76856e-008 -4.14371e-007 2.38542e-015 0 -7.95139e-016 1.96533e-007 -1.67424e-006 -8.28757e-007 1.96533e-007 8.7872e-007 -8.28757e-007 -101.861 -38.8854 -91.7372 -157.852 70.683 156.374 24.157 18.1557 -0.375516 -1.29413e-005 5.07037e-007 8.1713e-006 38.4163 -33.0943 32.1269 10.1061 18.6595 26.7861 -25.4014 27.3661 -1.58034 2.08811e-007 1.22988e-005 -3.34379e-007 
2.68199 1.66536 9.98515 0.645984 -48.0242 -1.50211 0.547102 6.40451 -0.731047 1.18823 12.8011 -1.5386 1.18824 12.8012 -1.53861 0.410931 27.1866 13.2441 14.3001 0.744918 13.5071 11.0025 6.99051 -12.5014 -10.3178 31.0604 -9.81987 2.09161 -4.55453 52.8668 61.5004 -26.1585 6.21686 -4.96962e-016 0 3.97569e-016 -1.88845e-015 1.59028e-015 7.95139e-016 2.73329e-015 2.38542e-015 7.95139e-016 -4.96962e-016 0 3.97569e-016 -0.0128147 0.0023236 8.57833e-005 5.96354e-015 0 3.97569e-016 -4.96962e-016 0 3.97569e-016 -0.0160765 0.00300004 0.00085638 2.48481e-016 3.97569e-015 -0 -4.96962e-016 0 3.97569e-016 -0.0125984 0.00312247 0.00282522 -1.2921e-014 0 -1.59028e-015 -4.96962e-016 0 3.97569e-016 -1.88845e-015 1.59028e-015 7.95139e-016 2.73329e-015 2.38542e-015 7.95139e-016 -11.8783 7.15592 7.14154 6.25985 32.5467 17.1246 -0.695032 -4.25324 -52.8668 -61.996 -25.2844 -7.8124 2.948e-007 -5.19967e-009 -1.24314e-006 -1.96533e-007 1.73322e-009 8.28757e-007 4.91333e-007 -1.63005e-006 -2.07189e-006 2.948e-007 -5.19967e-009 -1.24314e-006 0.0129581 0.00231281 -8.23488e-005 1.96553e-007 4.42083e-008 -8.28749e-007 2.948e-007 -5.19967e-009 -1.24314e-006 0.0163563 0.00303371 -0.000869318 2.5842e-015 -3.46781e-009 -7.95139e-016 2.948e-007 -5.19967e-009 -1.24314e-006 0.0145847 0.00367957 -0.00325986 9.93923e-016 1.59028e-015 -0 2.948e-007 -5.19967e-009 -1.24314e-006 -1.96533e-007 1.73322e-009 8.28757e-007 4.91333e-007 -1.63005e-006 -2.07189e-006 -101.895 -38.7289 -91.8671 -157.85 70.6844 156.37 24.1574 18.1641 -0.378921 5.26099e-006 2.39306e-006 3.17156e-006 38.4164 -33.0941 32.1269 10.106 18.659 26.7863 -25.4013 27.3666 -1.58027 2.93184e-006 1.24944e-006 5.67765e-006 
